<svg id="Layer_1" data-name="Layer 1" xmlns="http://www.w3.org/2000/svg" viewBox="0 0 19.12 20.24"><defs><style>.cls-1{fill:#00c89b;}</style></defs><path class="cls-1" d="M21.15,8.58,13.6,2.44a2.56,2.56,0,0,0-3.2,0h0L2.86,8.57a1.13,1.13,0,0,0-.42.88V21a1.13,1.13,0,0,0,1.12,1.13H8.63A1.13,1.13,0,0,0,9.75,21v-7.3h4.5V21a1.14,1.14,0,0,0,1.13,1.13h5.06A1.13,1.13,0,0,0,21.56,21V9.45A1.12,1.12,0,0,0,21.15,8.58ZM15.37,21V13.68a1.12,1.12,0,0,0-1.12-1.12H9.75a1.13,1.13,0,0,0-1.13,1.12V21l.26-8H15Z" transform="translate(-2.44 -1.88)"/></svg>